<svg width="145" height="27" viewBox="0 0 145 27" fill="none" xmlns="http://www.w3.org/2000/svg">
<g filter="url(#filter0_d_937_5)">
<mask id="path-1-outside-1_937_5" maskUnits="userSpaceOnUse" x="4" y="0" width="137" height="19" fill="black">
<rect fill="white" x="4" width="137" height="19"/>
<path d="M23.5508 17H20.7363V7.82617L15.7842 16.5381C15.6624 16.7601 15.4906 16.9284 15.2686 17.043C15.0537 17.1576 14.821 17.2148 14.5703 17.2148C14.3268 17.2148 14.0977 17.1576 13.8828 17.043C13.6751 16.9284 13.5104 16.7601 13.3887 16.5381L8.41504 7.82617V17H5.62207V2.78809C5.62207 2.46582 5.71517 2.17936 5.90137 1.92871C6.09473 1.67806 6.34538 1.50977 6.65332 1.42383C6.80371 1.38802 6.9541 1.37728 7.10449 1.3916C7.25488 1.39876 7.39811 1.43099 7.53418 1.48828C7.67741 1.53841 7.80632 1.61361 7.9209 1.71387C8.03548 1.80697 8.13216 1.92155 8.21094 2.05762L14.5703 13.1113L20.9297 2.05762C21.0944 1.78548 21.32 1.59212 21.6064 1.47754C21.9001 1.36296 22.2044 1.34505 22.5195 1.42383C22.8203 1.50977 23.0674 1.67806 23.2607 1.92871C23.4541 2.17936 23.5508 2.46582 23.5508 2.78809V17ZM39.4707 10.7051H30.6514V7.89062H39.4707V10.7051ZM40.7275 17H30.6514C30.2646 17 29.8421 16.932 29.3838 16.7959C28.9255 16.6598 28.4993 16.4378 28.1055 16.1299C27.7188 15.8148 27.3929 15.4102 27.1279 14.916C26.8701 14.4147 26.7412 13.8024 26.7412 13.0791V3.00293C26.7412 2.80957 26.777 2.62695 26.8486 2.45508C26.9202 2.2832 27.0169 2.13281 27.1387 2.00391C27.2676 1.875 27.418 1.77474 27.5898 1.70312C27.7617 1.63151 27.9479 1.5957 28.1484 1.5957H40.7275V4.38867H29.5342V13.0791C29.5342 13.4443 29.6309 13.7236 29.8242 13.917C30.0176 14.1104 30.3005 14.207 30.6729 14.207H40.7275V17ZM61.3633 17H58.5488V7.82617L53.5967 16.5381C53.4749 16.7601 53.3031 16.9284 53.0811 17.043C52.8662 17.1576 52.6335 17.2148 52.3828 17.2148C52.1393 17.2148 51.9102 17.1576 51.6953 17.043C51.4876 16.9284 51.3229 16.7601 51.2012 16.5381L46.2275 7.82617V17H43.4346V2.78809C43.4346 2.46582 43.5277 2.17936 43.7139 1.92871C43.9072 1.67806 44.1579 1.50977 44.4658 1.42383C44.6162 1.38802 44.7666 1.37728 44.917 1.3916C45.0674 1.39876 45.2106 1.43099 45.3467 1.48828C45.4899 1.53841 45.6188 1.61361 45.7334 1.71387C45.848 1.80697 45.9447 1.92155 46.0234 2.05762L52.3828 13.1113L58.7422 2.05762C58.9069 1.78548 59.1325 1.59212 59.4189 1.47754C59.7126 1.36296 60.0169 1.34505 60.332 1.42383C60.6328 1.50977 60.8799 1.67806 61.0732 1.92871C61.2666 2.17936 61.3633 2.46582 61.3633 2.78809V17ZM80.7852 10.7695C80.7852 11.7077 80.624 12.5706 80.3018 13.3584C79.9795 14.1462 79.5319 14.8265 78.959 15.3994C78.3861 15.9723 77.7057 16.4199 76.918 16.7422C76.1374 17.0573 75.2852 17.2148 74.3613 17.2148H70.5801C69.6562 17.2148 68.8005 17.0573 68.0127 16.7422C67.2249 16.4199 66.5446 15.9723 65.9717 15.3994C65.3988 14.8265 64.9476 14.1462 64.6182 13.3584C64.2959 12.5706 64.1348 11.7077 64.1348 10.7695V7.82617C64.1348 6.89518 64.2959 6.03581 64.6182 5.24805C64.9476 4.45312 65.3988 3.77279 65.9717 3.20703C66.5446 2.63411 67.2249 2.18652 68.0127 1.86426C68.8005 1.54199 69.6562 1.38086 70.5801 1.38086H74.3613C75.2852 1.38086 76.1374 1.54199 76.918 1.86426C77.7057 2.18652 78.3861 2.63411 78.959 3.20703C79.5319 3.77279 79.9795 4.45312 80.3018 5.24805C80.624 6.03581 80.7852 6.89518 80.7852 7.82617V10.7695ZM77.9922 7.82617C77.9922 7.27474 77.9027 6.77702 77.7236 6.33301C77.5518 5.88184 77.3047 5.4987 76.9824 5.18359C76.6673 4.86133 76.2842 4.61426 75.833 4.44238C75.389 4.26335 74.8984 4.17383 74.3613 4.17383H70.5801C70.0358 4.17383 69.5381 4.26335 69.0869 4.44238C68.6429 4.61426 68.2598 4.86133 67.9375 5.18359C67.6152 5.4987 67.3646 5.88184 67.1855 6.33301C67.0137 6.77702 66.9277 7.27474 66.9277 7.82617V10.7695C66.9277 11.321 67.0137 11.8223 67.1855 12.2734C67.3646 12.7174 67.6152 13.1006 67.9375 13.4229C68.2598 13.738 68.6429 13.985 69.0869 14.1641C69.5381 14.3359 70.0358 14.4219 70.5801 14.4219H74.3398C74.8841 14.4219 75.3783 14.3359 75.8223 14.1641C76.2734 13.985 76.6602 13.738 76.9824 13.4229C77.3047 13.1006 77.5518 12.7174 77.7236 12.2734C77.9027 11.8223 77.9922 11.321 77.9922 10.7695V7.82617ZM98.9395 6.77344C98.9395 7.41081 98.8607 7.98014 98.7031 8.48145C98.5456 8.98275 98.3307 9.42676 98.0586 9.81348C97.7936 10.193 97.4857 10.5189 97.1348 10.791C96.7839 11.0632 96.415 11.2887 96.0283 11.4678C95.6488 11.6396 95.262 11.765 94.8682 11.8438C94.4814 11.9225 94.1162 11.9619 93.7725 11.9619L99.6055 17H95.2871L89.4648 11.9619H87.4561V9.16895H93.7725C94.1234 9.1403 94.4421 9.06868 94.7285 8.9541C95.0221 8.83236 95.2728 8.67122 95.4805 8.4707C95.6953 8.27018 95.86 8.03027 95.9746 7.75098C96.0892 7.46452 96.1465 7.13867 96.1465 6.77344V5.01172C96.1465 4.85417 96.125 4.736 96.082 4.65723C96.0462 4.57129 95.9961 4.51042 95.9316 4.47461C95.8743 4.43164 95.8099 4.40658 95.7383 4.39941C95.6738 4.39225 95.613 4.38867 95.5557 4.38867H86.3389V17H83.5459V3.00293C83.5459 2.80957 83.5817 2.62695 83.6533 2.45508C83.7249 2.2832 83.8216 2.13281 83.9434 2.00391C84.0723 1.875 84.2227 1.77474 84.3945 1.70312C84.5664 1.63151 84.7526 1.5957 84.9531 1.5957H95.5557C96.1787 1.5957 96.7051 1.71029 97.1348 1.93945C97.5645 2.16146 97.9118 2.44434 98.1768 2.78809C98.4489 3.12467 98.6423 3.48991 98.7568 3.88379C98.8786 4.27767 98.9395 4.64648 98.9395 4.99023V6.77344ZM104.558 17H101.765V1.5957H104.558V17ZM120.488 10.7051H111.669V7.89062H120.488V10.7051ZM121.745 17H111.669C111.282 17 110.86 16.932 110.401 16.7959C109.943 16.6598 109.517 16.4378 109.123 16.1299C108.736 15.8148 108.41 15.4102 108.146 14.916C107.888 14.4147 107.759 13.8024 107.759 13.0791V3.00293C107.759 2.80957 107.795 2.62695 107.866 2.45508C107.938 2.2832 108.035 2.13281 108.156 2.00391C108.285 1.875 108.436 1.77474 108.607 1.70312C108.779 1.63151 108.965 1.5957 109.166 1.5957H121.745V4.38867H110.552V13.0791C110.552 13.4443 110.648 13.7236 110.842 13.917C111.035 14.1104 111.318 14.207 111.69 14.207H121.745V17ZM139.19 12.4668C139.19 13.0182 139.119 13.516 138.976 13.96C138.84 14.3968 138.657 14.7835 138.428 15.1201C138.199 15.4567 137.93 15.7432 137.622 15.9795C137.314 16.2158 136.995 16.4092 136.666 16.5596C136.337 16.71 136 16.821 135.656 16.8926C135.32 16.9642 135.001 17 134.7 17H123.926V14.207H134.7C135.237 14.207 135.653 14.0495 135.946 13.7344C136.247 13.4193 136.397 12.9967 136.397 12.4668C136.397 12.209 136.358 11.9727 136.279 11.7578C136.201 11.543 136.086 11.3568 135.936 11.1992C135.792 11.0417 135.613 10.9199 135.398 10.834C135.191 10.748 134.958 10.7051 134.7 10.7051H128.276C127.825 10.7051 127.338 10.6263 126.815 10.4688C126.293 10.304 125.806 10.0426 125.354 9.68457C124.91 9.3265 124.538 8.85742 124.237 8.27734C123.944 7.69727 123.797 6.98828 123.797 6.15039C123.797 5.3125 123.944 4.6071 124.237 4.03418C124.538 3.4541 124.91 2.98503 125.354 2.62695C125.806 2.26172 126.293 2.00033 126.815 1.84277C127.338 1.67806 127.825 1.5957 128.276 1.5957H137.783V4.38867H128.276C127.746 4.38867 127.331 4.5498 127.03 4.87207C126.737 5.19434 126.59 5.62044 126.59 6.15039C126.59 6.6875 126.737 7.11361 127.03 7.42871C127.331 7.73665 127.746 7.89062 128.276 7.89062H134.7H134.722C135.022 7.89779 135.341 7.94076 135.678 8.01953C136.014 8.09115 136.347 8.20573 136.677 8.36328C137.013 8.52083 137.332 8.72135 137.633 8.96484C137.934 9.20117 138.199 9.48763 138.428 9.82422C138.664 10.1608 138.85 10.5475 138.986 10.9844C139.122 11.4212 139.19 11.9154 139.19 12.4668Z"/>
</mask>
<path d="M23.5508 17H20.7363V7.82617L15.7842 16.5381C15.6624 16.7601 15.4906 16.9284 15.2686 17.043C15.0537 17.1576 14.821 17.2148 14.5703 17.2148C14.3268 17.2148 14.0977 17.1576 13.8828 17.043C13.6751 16.9284 13.5104 16.7601 13.3887 16.5381L8.41504 7.82617V17H5.62207V2.78809C5.62207 2.46582 5.71517 2.17936 5.90137 1.92871C6.09473 1.67806 6.34538 1.50977 6.65332 1.42383C6.80371 1.38802 6.9541 1.37728 7.10449 1.3916C7.25488 1.39876 7.39811 1.43099 7.53418 1.48828C7.67741 1.53841 7.80632 1.61361 7.9209 1.71387C8.03548 1.80697 8.13216 1.92155 8.21094 2.05762L14.5703 13.1113L20.9297 2.05762C21.0944 1.78548 21.32 1.59212 21.6064 1.47754C21.9001 1.36296 22.2044 1.34505 22.5195 1.42383C22.8203 1.50977 23.0674 1.67806 23.2607 1.92871C23.4541 2.17936 23.5508 2.46582 23.5508 2.78809V17ZM39.4707 10.7051H30.6514V7.89062H39.4707V10.7051ZM40.7275 17H30.6514C30.2646 17 29.8421 16.932 29.3838 16.7959C28.9255 16.6598 28.4993 16.4378 28.1055 16.1299C27.7188 15.8148 27.3929 15.4102 27.1279 14.916C26.8701 14.4147 26.7412 13.8024 26.7412 13.0791V3.00293C26.7412 2.80957 26.777 2.62695 26.8486 2.45508C26.9202 2.2832 27.0169 2.13281 27.1387 2.00391C27.2676 1.875 27.418 1.77474 27.5898 1.70312C27.7617 1.63151 27.9479 1.5957 28.1484 1.5957H40.7275V4.38867H29.5342V13.0791C29.5342 13.4443 29.6309 13.7236 29.8242 13.917C30.0176 14.1104 30.3005 14.207 30.6729 14.207H40.7275V17ZM61.3633 17H58.5488V7.82617L53.5967 16.5381C53.4749 16.7601 53.3031 16.9284 53.0811 17.043C52.8662 17.1576 52.6335 17.2148 52.3828 17.2148C52.1393 17.2148 51.9102 17.1576 51.6953 17.043C51.4876 16.9284 51.3229 16.7601 51.2012 16.5381L46.2275 7.82617V17H43.4346V2.78809C43.4346 2.46582 43.5277 2.17936 43.7139 1.92871C43.9072 1.67806 44.1579 1.50977 44.4658 1.42383C44.6162 1.38802 44.7666 1.37728 44.917 1.3916C45.0674 1.39876 45.2106 1.43099 45.3467 1.48828C45.4899 1.53841 45.6188 1.61361 45.7334 1.71387C45.848 1.80697 45.9447 1.92155 46.0234 2.05762L52.3828 13.1113L58.7422 2.05762C58.9069 1.78548 59.1325 1.59212 59.4189 1.47754C59.7126 1.36296 60.0169 1.34505 60.332 1.42383C60.6328 1.50977 60.8799 1.67806 61.0732 1.92871C61.2666 2.17936 61.3633 2.46582 61.3633 2.78809V17ZM80.7852 10.7695C80.7852 11.7077 80.624 12.5706 80.3018 13.3584C79.9795 14.1462 79.5319 14.8265 78.959 15.3994C78.3861 15.9723 77.7057 16.4199 76.918 16.7422C76.1374 17.0573 75.2852 17.2148 74.3613 17.2148H70.5801C69.6562 17.2148 68.8005 17.0573 68.0127 16.7422C67.2249 16.4199 66.5446 15.9723 65.9717 15.3994C65.3988 14.8265 64.9476 14.1462 64.6182 13.3584C64.2959 12.5706 64.1348 11.7077 64.1348 10.7695V7.82617C64.1348 6.89518 64.2959 6.03581 64.6182 5.24805C64.9476 4.45312 65.3988 3.77279 65.9717 3.20703C66.5446 2.63411 67.2249 2.18652 68.0127 1.86426C68.8005 1.54199 69.6562 1.38086 70.5801 1.38086H74.3613C75.2852 1.38086 76.1374 1.54199 76.918 1.86426C77.7057 2.18652 78.3861 2.63411 78.959 3.20703C79.5319 3.77279 79.9795 4.45312 80.3018 5.24805C80.624 6.03581 80.7852 6.89518 80.7852 7.82617V10.7695ZM77.9922 7.82617C77.9922 7.27474 77.9027 6.77702 77.7236 6.33301C77.5518 5.88184 77.3047 5.4987 76.9824 5.18359C76.6673 4.86133 76.2842 4.61426 75.833 4.44238C75.389 4.26335 74.8984 4.17383 74.3613 4.17383H70.5801C70.0358 4.17383 69.5381 4.26335 69.0869 4.44238C68.6429 4.61426 68.2598 4.86133 67.9375 5.18359C67.6152 5.4987 67.3646 5.88184 67.1855 6.33301C67.0137 6.77702 66.9277 7.27474 66.9277 7.82617V10.7695C66.9277 11.321 67.0137 11.8223 67.1855 12.2734C67.3646 12.7174 67.6152 13.1006 67.9375 13.4229C68.2598 13.738 68.6429 13.985 69.0869 14.1641C69.5381 14.3359 70.0358 14.4219 70.5801 14.4219H74.3398C74.8841 14.4219 75.3783 14.3359 75.8223 14.1641C76.2734 13.985 76.6602 13.738 76.9824 13.4229C77.3047 13.1006 77.5518 12.7174 77.7236 12.2734C77.9027 11.8223 77.9922 11.321 77.9922 10.7695V7.82617ZM98.9395 6.77344C98.9395 7.41081 98.8607 7.98014 98.7031 8.48145C98.5456 8.98275 98.3307 9.42676 98.0586 9.81348C97.7936 10.193 97.4857 10.5189 97.1348 10.791C96.7839 11.0632 96.415 11.2887 96.0283 11.4678C95.6488 11.6396 95.262 11.765 94.8682 11.8438C94.4814 11.9225 94.1162 11.9619 93.7725 11.9619L99.6055 17H95.2871L89.4648 11.9619H87.4561V9.16895H93.7725C94.1234 9.1403 94.4421 9.06868 94.7285 8.9541C95.0221 8.83236 95.2728 8.67122 95.4805 8.4707C95.6953 8.27018 95.86 8.03027 95.9746 7.75098C96.0892 7.46452 96.1465 7.13867 96.1465 6.77344V5.01172C96.1465 4.85417 96.125 4.736 96.082 4.65723C96.0462 4.57129 95.9961 4.51042 95.9316 4.47461C95.8743 4.43164 95.8099 4.40658 95.7383 4.39941C95.6738 4.39225 95.613 4.38867 95.5557 4.38867H86.3389V17H83.5459V3.00293C83.5459 2.80957 83.5817 2.62695 83.6533 2.45508C83.7249 2.2832 83.8216 2.13281 83.9434 2.00391C84.0723 1.875 84.2227 1.77474 84.3945 1.70312C84.5664 1.63151 84.7526 1.5957 84.9531 1.5957H95.5557C96.1787 1.5957 96.7051 1.71029 97.1348 1.93945C97.5645 2.16146 97.9118 2.44434 98.1768 2.78809C98.4489 3.12467 98.6423 3.48991 98.7568 3.88379C98.8786 4.27767 98.9395 4.64648 98.9395 4.99023V6.77344ZM104.558 17H101.765V1.5957H104.558V17ZM120.488 10.7051H111.669V7.89062H120.488V10.7051ZM121.745 17H111.669C111.282 17 110.86 16.932 110.401 16.7959C109.943 16.6598 109.517 16.4378 109.123 16.1299C108.736 15.8148 108.41 15.4102 108.146 14.916C107.888 14.4147 107.759 13.8024 107.759 13.0791V3.00293C107.759 2.80957 107.795 2.62695 107.866 2.45508C107.938 2.2832 108.035 2.13281 108.156 2.00391C108.285 1.875 108.436 1.77474 108.607 1.70312C108.779 1.63151 108.965 1.5957 109.166 1.5957H121.745V4.38867H110.552V13.0791C110.552 13.4443 110.648 13.7236 110.842 13.917C111.035 14.1104 111.318 14.207 111.69 14.207H121.745V17ZM139.19 12.4668C139.19 13.0182 139.119 13.516 138.976 13.96C138.84 14.3968 138.657 14.7835 138.428 15.1201C138.199 15.4567 137.93 15.7432 137.622 15.9795C137.314 16.2158 136.995 16.4092 136.666 16.5596C136.337 16.71 136 16.821 135.656 16.8926C135.32 16.9642 135.001 17 134.7 17H123.926V14.207H134.7C135.237 14.207 135.653 14.0495 135.946 13.7344C136.247 13.4193 136.397 12.9967 136.397 12.4668C136.397 12.209 136.358 11.9727 136.279 11.7578C136.201 11.543 136.086 11.3568 135.936 11.1992C135.792 11.0417 135.613 10.9199 135.398 10.834C135.191 10.748 134.958 10.7051 134.7 10.7051H128.276C127.825 10.7051 127.338 10.6263 126.815 10.4688C126.293 10.304 125.806 10.0426 125.354 9.68457C124.91 9.3265 124.538 8.85742 124.237 8.27734C123.944 7.69727 123.797 6.98828 123.797 6.15039C123.797 5.3125 123.944 4.6071 124.237 4.03418C124.538 3.4541 124.91 2.98503 125.354 2.62695C125.806 2.26172 126.293 2.00033 126.815 1.84277C127.338 1.67806 127.825 1.5957 128.276 1.5957H137.783V4.38867H128.276C127.746 4.38867 127.331 4.5498 127.03 4.87207C126.737 5.19434 126.59 5.62044 126.59 6.15039C126.59 6.6875 126.737 7.11361 127.03 7.42871C127.331 7.73665 127.746 7.89062 128.276 7.89062H134.7H134.722C135.022 7.89779 135.341 7.94076 135.678 8.01953C136.014 8.09115 136.347 8.20573 136.677 8.36328C137.013 8.52083 137.332 8.72135 137.633 8.96484C137.934 9.20117 138.199 9.48763 138.428 9.82422C138.664 10.1608 138.85 10.5475 138.986 10.9844C139.122 11.4212 139.19 11.9154 139.19 12.4668Z" fill="#1E1D1E"/>
<path d="M23.5508 17V18H24.5508V17H23.5508ZM20.7363 17H19.7363V18H20.7363V17ZM20.7363 7.82617H21.7363V4.04338L19.867 7.332L20.7363 7.82617ZM15.7842 16.5381L14.9148 16.0439L14.911 16.0506L14.9074 16.0573L15.7842 16.5381ZM15.2686 17.043L14.8099 16.1543L14.798 16.1606L15.2686 17.043ZM13.8828 17.043L13.3997 17.9185L13.406 17.922L13.4122 17.9253L13.8828 17.043ZM13.3887 16.5381L14.2655 16.0573L14.2614 16.0497L14.2571 16.0423L13.3887 16.5381ZM8.41504 7.82617L9.28348 7.33038L7.41504 4.05758V7.82617H8.41504ZM8.41504 17V18H9.41504V17H8.41504ZM5.62207 17H4.62207V18H5.62207V17ZM5.90137 1.92871L5.10958 1.31791L5.10404 1.3251L5.09862 1.33239L5.90137 1.92871ZM6.65332 1.42383L6.4217 0.451022L6.40302 0.45547L6.38452 0.460632L6.65332 1.42383ZM7.10449 1.3916L7.00968 2.3871L7.03327 2.38934L7.05693 2.39047L7.10449 1.3916ZM7.53418 1.48828L7.14612 2.40992L7.17463 2.42192L7.20383 2.43214L7.53418 1.48828ZM7.9209 1.71387L7.26239 2.46644L7.27613 2.47847L7.29031 2.48998L7.9209 1.71387ZM8.21094 2.05762L9.07773 1.55894L9.07636 1.55658L8.21094 2.05762ZM14.5703 13.1113L13.7035 13.61L14.5703 15.1166L15.4371 13.61L14.5703 13.1113ZM20.9297 2.05762L20.0742 1.53981L20.0684 1.54931L20.0629 1.55894L20.9297 2.05762ZM21.6064 1.47754L21.2429 0.545928L21.2351 0.549062L21.6064 1.47754ZM22.5195 1.42383L22.7943 0.462304L22.7782 0.457727L22.7621 0.453686L22.5195 1.42383ZM23.5508 17V16H20.7363V17V18H23.5508V17ZM20.7363 17H21.7363V7.82617H20.7363H19.7363V17H20.7363ZM20.7363 7.82617L19.867 7.332L14.9148 16.0439L15.7842 16.5381L16.6535 17.0323L21.6057 8.32035L20.7363 7.82617ZM15.7842 16.5381L14.9074 16.0573C14.88 16.1072 14.8525 16.1324 14.8099 16.1543L15.2686 17.043L15.7272 17.9316C16.1286 17.7244 16.4449 17.4129 16.661 17.0189L15.7842 16.5381ZM15.2686 17.043L14.798 16.1606C14.7323 16.1956 14.6618 16.2148 14.5703 16.2148V17.2148V18.2148C14.9801 18.2148 15.3751 18.1195 15.7391 17.9253L15.2686 17.043ZM14.5703 17.2148V16.2148C14.491 16.2148 14.4234 16.198 14.3534 16.1606L13.8828 17.043L13.4122 17.9253C13.7719 18.1171 14.1627 18.2148 14.5703 18.2148V17.2148ZM13.8828 17.043L14.3659 16.1674C14.3355 16.1507 14.3025 16.1247 14.2655 16.0573L13.3887 16.5381L12.5119 17.0189C12.7183 17.3955 13.0147 17.7061 13.3997 17.9185L13.8828 17.043ZM13.3887 16.5381L14.2571 16.0423L9.28348 7.33038L8.41504 7.82617L7.5466 8.32196L12.5202 17.0339L13.3887 16.5381ZM8.41504 7.82617H7.41504V17H8.41504H9.41504V7.82617H8.41504ZM8.41504 17V16H5.62207V17V18H8.41504V17ZM5.62207 17H6.62207V2.78809H5.62207H4.62207V17H5.62207ZM5.62207 2.78809H6.62207C6.62207 2.67323 6.65035 2.59741 6.70411 2.52503L5.90137 1.92871L5.09862 1.33239C4.77999 1.76131 4.62207 2.25842 4.62207 2.78809H5.62207ZM5.90137 1.92871L6.69315 2.53951C6.75335 2.46148 6.81972 2.4156 6.92212 2.38702L6.65332 1.42383L6.38452 0.460632C5.87103 0.603931 5.43611 0.894638 5.10958 1.31791L5.90137 1.92871ZM6.65332 1.42383L6.88494 2.39663C6.93103 2.38566 6.97117 2.38343 7.00968 2.3871L7.10449 1.3916L7.1993 0.396106C6.93704 0.371128 6.67639 0.390382 6.4217 0.451022L6.65332 1.42383ZM7.10449 1.3916L7.05693 2.39047C7.09253 2.39217 7.1203 2.39905 7.14612 2.40992L7.53418 1.48828L7.92224 0.566646C7.67592 0.462934 7.41723 0.405361 7.15206 0.392733L7.10449 1.3916ZM7.53418 1.48828L7.20383 2.43214C7.22605 2.43992 7.24364 2.45004 7.26239 2.46644L7.9209 1.71387L8.5794 0.96129C8.36899 0.777179 8.12877 0.636908 7.86453 0.544423L7.53418 1.48828ZM7.9209 1.71387L7.29031 2.48998C7.30455 2.50156 7.32365 2.5209 7.34551 2.55865L8.21094 2.05762L9.07636 1.55658C8.94067 1.3222 8.76641 1.11238 8.55149 0.937753L7.9209 1.71387ZM8.21094 2.05762L7.34415 2.55629L13.7035 13.61L14.5703 13.1113L15.4371 12.6127L9.07773 1.55894L8.21094 2.05762ZM14.5703 13.1113L15.4371 13.61L21.7965 2.55629L20.9297 2.05762L20.0629 1.55894L13.7035 12.6127L14.5703 13.1113ZM20.9297 2.05762L21.7852 2.57542C21.8412 2.48292 21.8997 2.43727 21.9778 2.40602L21.6064 1.47754L21.2351 0.549062C20.7403 0.746973 20.3476 1.08804 20.0742 1.53981L20.9297 2.05762ZM21.6064 1.47754L21.97 2.40912C22.0643 2.37232 22.1565 2.36384 22.277 2.39397L22.5195 1.42383L22.7621 0.453686C22.2524 0.326262 21.7359 0.353587 21.2429 0.545961L21.6064 1.47754ZM22.5195 1.42383L22.2448 2.38535C22.3376 2.41185 22.4044 2.45581 22.469 2.53951L23.2607 1.92871L24.0525 1.31791C23.7304 0.900309 23.3031 0.607677 22.7943 0.462304L22.5195 1.42383ZM23.2607 1.92871L22.469 2.53951C22.5247 2.61179 22.5508 2.68253 22.5508 2.78809H23.5508H24.5508C24.5508 2.24911 24.3835 1.74693 24.0525 1.31791L23.2607 1.92871ZM23.5508 2.78809H22.5508V17H23.5508H24.5508V2.78809H23.5508ZM39.4707 10.7051V11.7051H40.4707V10.7051H39.4707ZM30.6514 10.7051H29.6514V11.7051H30.6514V10.7051ZM30.6514 7.89062V6.89062H29.6514V7.89062H30.6514ZM39.4707 7.89062H40.4707V6.89062H39.4707V7.89062ZM40.7275 17V18H41.7275V17H40.7275ZM29.3838 16.7959L29.0992 17.7545L29.3838 16.7959ZM28.1055 16.1299L27.4738 16.9051L27.4816 16.9115L27.4895 16.9177L28.1055 16.1299ZM27.1279 14.916L26.2386 15.3734L26.2426 15.381L26.2466 15.3886L27.1279 14.916ZM27.1387 2.00391L26.4316 1.2968L26.4215 1.3069L26.4117 1.31728L27.1387 2.00391ZM40.7275 1.5957H41.7275V0.595703H40.7275V1.5957ZM40.7275 4.38867V5.38867H41.7275V4.38867H40.7275ZM29.5342 4.38867V3.38867H28.5342V4.38867H29.5342ZM40.7275 14.207H41.7275V13.207H40.7275V14.207ZM39.4707 10.7051V9.70508H30.6514V10.7051V11.7051H39.4707V10.7051ZM30.6514 10.7051H31.6514V7.89062H30.6514H29.6514V10.7051H30.6514ZM30.6514 7.89062V8.89062H39.4707V7.89062V6.89062H30.6514V7.89062ZM39.4707 7.89062H38.4707V10.7051H39.4707H40.4707V7.89062H39.4707ZM40.7275 17V16H30.6514V17V18H40.7275V17ZM30.6514 17V16C30.3806 16 30.0552 15.9521 29.6684 15.8373L29.3838 16.7959L29.0992 17.7545C29.629 17.9118 30.1487 18 30.6514 18V17ZM29.3838 16.7959L29.6684 15.8373C29.3357 15.7385 29.0211 15.5764 28.7214 15.3421L28.1055 16.1299L27.4895 16.9177C27.9776 17.2993 28.5152 17.5812 29.0992 17.7545L29.3838 16.7959ZM28.1055 16.1299L28.7371 15.3546C28.4647 15.1327 28.2195 14.8356 28.0092 14.4434L27.1279 14.916L26.2466 15.3886C26.5663 15.9847 26.9728 16.4969 27.4738 16.9051L28.1055 16.1299ZM27.1279 14.916L28.0172 14.4587C27.8498 14.1332 27.7412 13.687 27.7412 13.0791H26.7412H25.7412C25.7412 13.9178 25.8904 14.6963 26.2386 15.3734L27.1279 14.916ZM26.7412 13.0791H27.7412V3.00293H26.7412H25.7412V13.0791H26.7412ZM26.7412 3.00293H27.7412C27.7412 2.93642 27.7528 2.88501 27.7717 2.83969L26.8486 2.45508L25.9256 2.07046C25.8012 2.3689 25.7412 2.68272 25.7412 3.00293H26.7412ZM26.8486 2.45508L27.7717 2.83969C27.7991 2.77385 27.8311 2.7271 27.8657 2.69053L27.1387 2.00391L26.4117 1.31728C26.2027 1.53852 26.0414 1.79255 25.9256 2.07046L26.8486 2.45508ZM27.1387 2.00391L27.8458 2.71101C27.8803 2.67647 27.9205 2.64868 27.9745 2.6262L27.5898 1.70312L27.2052 0.780048C26.9154 0.900801 26.6548 1.07353 26.4316 1.2968L27.1387 2.00391ZM27.5898 1.70312L27.9745 2.6262C28.0153 2.60917 28.0697 2.5957 28.1484 2.5957V1.5957V0.595703C27.8261 0.595703 27.5081 0.653852 27.2052 0.780048L27.5898 1.70312ZM28.1484 1.5957V2.5957H40.7275V1.5957V0.595703H28.1484V1.5957ZM40.7275 1.5957H39.7275V4.38867H40.7275H41.7275V1.5957H40.7275ZM40.7275 4.38867V3.38867H29.5342V4.38867V5.38867H40.7275V4.38867ZM29.5342 4.38867H28.5342V13.0791H29.5342H30.5342V4.38867H29.5342ZM29.5342 13.0791H28.5342C28.5342 13.6176 28.6799 14.1869 29.1171 14.6241L29.8242 13.917L30.5313 13.2099C30.5392 13.2178 30.5455 13.226 30.5496 13.2328C30.5537 13.2394 30.5537 13.2412 30.5517 13.2354C30.5472 13.2224 30.5342 13.1756 30.5342 13.0791H29.5342ZM29.8242 13.917L29.1171 14.6241C29.5577 15.0647 30.1336 15.207 30.6729 15.207V14.207V13.207C30.5708 13.207 30.5202 13.1935 30.5048 13.1883C30.4942 13.1846 30.5103 13.1888 30.5313 13.2099L29.8242 13.917ZM30.6729 14.207V15.207H40.7275V14.207V13.207H30.6729V14.207ZM40.7275 14.207H39.7275V17H40.7275H41.7275V14.207H40.7275ZM61.3633 17V18H62.3633V17H61.3633ZM58.5488 17H57.5488V18H58.5488V17ZM58.5488 7.82617H59.5488V4.04338L57.6795 7.332L58.5488 7.82617ZM53.5967 16.5381L52.7273 16.0439L52.7235 16.0506L52.7199 16.0573L53.5967 16.5381ZM53.0811 17.043L52.6224 16.1543L52.6105 16.1606L53.0811 17.043ZM51.6953 17.043L51.2122 17.9185L51.2185 17.922L51.2247 17.9253L51.6953 17.043ZM51.2012 16.5381L52.078 16.0573L52.0739 16.0497L52.0696 16.0423L51.2012 16.5381ZM46.2275 7.82617L47.096 7.33038L45.2275 4.05758V7.82617H46.2275ZM46.2275 17V18H47.2275V17H46.2275ZM43.4346 17H42.4346V18H43.4346V17ZM43.7139 1.92871L42.9221 1.31791L42.9165 1.3251L42.9111 1.33239L43.7139 1.92871ZM44.4658 1.42383L44.2342 0.451022L44.2155 0.45547L44.197 0.460632L44.4658 1.42383ZM44.917 1.3916L44.8222 2.3871L44.8458 2.38934L44.8694 2.39047L44.917 1.3916ZM45.3467 1.48828L44.9586 2.40992L44.9871 2.42192L45.0163 2.43214L45.3467 1.48828ZM45.7334 1.71387L45.0749 2.46644L45.0886 2.47847L45.1028 2.48998L45.7334 1.71387ZM46.0234 2.05762L46.8902 1.55894L46.8889 1.55658L46.0234 2.05762ZM52.3828 13.1113L51.516 13.61L52.3828 15.1166L53.2496 13.61L52.3828 13.1113ZM58.7422 2.05762L57.8867 1.53981L57.8809 1.54931L57.8754 1.55894L58.7422 2.05762ZM59.4189 1.47754L59.0554 0.545928L59.0476 0.549062L59.4189 1.47754ZM60.332 1.42383L60.6068 0.462304L60.5907 0.457727L60.5746 0.453686L60.332 1.42383ZM61.3633 17V16H58.5488V17V18H61.3633V17ZM58.5488 17H59.5488V7.82617H58.5488H57.5488V17H58.5488ZM58.5488 7.82617L57.6795 7.332L52.7273 16.0439L53.5967 16.5381L54.466 17.0323L59.4182 8.32035L58.5488 7.82617ZM53.5967 16.5381L52.7199 16.0573C52.6925 16.1072 52.665 16.1324 52.6224 16.1543L53.0811 17.043L53.5397 17.9316C53.9411 17.7244 54.2574 17.4129 54.4735 17.0189L53.5967 16.5381ZM53.0811 17.043L52.6105 16.1606C52.5448 16.1956 52.4743 16.2148 52.3828 16.2148V17.2148V18.2148C52.7926 18.2148 53.1876 18.1195 53.5516 17.9253L53.0811 17.043ZM52.3828 17.2148V16.2148C52.3035 16.2148 52.2359 16.198 52.1659 16.1606L51.6953 17.043L51.2247 17.9253C51.5844 18.1171 51.9752 18.2148 52.3828 18.2148V17.2148ZM51.6953 17.043L52.1784 16.1674C52.148 16.1507 52.115 16.1247 52.078 16.0573L51.2012 16.5381L50.3244 17.0189C50.5308 17.3955 50.8272 17.7061 51.2122 17.9185L51.6953 17.043ZM51.2012 16.5381L52.0696 16.0423L47.096 7.33038L46.2275 7.82617L45.3591 8.32196L50.3327 17.0339L51.2012 16.5381ZM46.2275 7.82617H45.2275V17H46.2275H47.2275V7.82617H46.2275ZM46.2275 17V16H43.4346V17V18H46.2275V17ZM43.4346 17H44.4346V2.78809H43.4346H42.4346V17H43.4346ZM43.4346 2.78809H44.4346C44.4346 2.67323 44.4628 2.59741 44.5166 2.52503L43.7139 1.92871L42.9111 1.33239C42.5925 1.76131 42.4346 2.25842 42.4346 2.78809H43.4346ZM43.7139 1.92871L44.5056 2.53951C44.5658 2.46148 44.6322 2.4156 44.7346 2.38702L44.4658 1.42383L44.197 0.460632C43.6835 0.603931 43.2486 0.894638 42.9221 1.31791L43.7139 1.92871ZM44.4658 1.42383L44.6974 2.39663C44.7435 2.38566 44.7837 2.38343 44.8222 2.3871L44.917 1.3916L45.0118 0.396106C44.7495 0.371128 44.4889 0.390382 44.2342 0.451022L44.4658 1.42383ZM44.917 1.3916L44.8694 2.39047C44.905 2.39217 44.9328 2.39905 44.9586 2.40992L45.3467 1.48828L45.7347 0.566646C45.4884 0.462934 45.2297 0.405361 44.9646 0.392733L44.917 1.3916ZM45.3467 1.48828L45.0163 2.43214C45.0385 2.43992 45.0561 2.45004 45.0749 2.46644L45.7334 1.71387L46.3919 0.96129C46.1815 0.777179 45.9413 0.636908 45.677 0.544423L45.3467 1.48828ZM45.7334 1.71387L45.1028 2.48998C45.1171 2.50156 45.1362 2.5209 45.158 2.55865L46.0234 2.05762L46.8889 1.55658C46.7532 1.3222 46.5789 1.11238 46.364 0.937753L45.7334 1.71387ZM46.0234 2.05762L45.1566 2.55629L51.516 13.61L52.3828 13.1113L53.2496 12.6127L46.8902 1.55894L46.0234 2.05762ZM52.3828 13.1113L53.2496 13.61L59.609 2.55629L58.7422 2.05762L57.8754 1.55894L51.516 12.6127L52.3828 13.1113ZM58.7422 2.05762L59.5977 2.57542C59.6537 2.48292 59.7122 2.43727 59.7903 2.40602L59.4189 1.47754L59.0476 0.549062C58.5528 0.746973 58.1601 1.08804 57.8867 1.53981L58.7422 2.05762ZM59.4189 1.47754L59.7825 2.40912C59.8768 2.37232 59.969 2.36384 60.0895 2.39397L60.332 1.42383L60.5746 0.453686C60.0649 0.326262 59.5484 0.353587 59.0554 0.545961L59.4189 1.47754ZM60.332 1.42383L60.0573 2.38535C60.1501 2.41185 60.2169 2.45581 60.2815 2.53951L61.0732 1.92871L61.865 1.31791C61.5429 0.900309 61.1156 0.607677 60.6068 0.462304L60.332 1.42383ZM61.0732 1.92871L60.2815 2.53951C60.3372 2.61179 60.3633 2.68253 60.3633 2.78809H61.3633H62.3633C62.3633 2.24911 62.196 1.74693 61.865 1.31791L61.0732 1.92871ZM61.3633 2.78809H60.3633V17H61.3633H62.3633V2.78809H61.3633ZM78.959 15.3994L79.6661 16.1065L78.959 15.3994ZM76.918 16.7422L77.2923 17.6695L77.2966 17.6677L76.918 16.7422ZM68.0127 16.7422L67.6341 17.6678L67.6413 17.6707L68.0127 16.7422ZM64.6182 13.3584L63.6926 13.737L63.6956 13.7442L64.6182 13.3584ZM64.6182 5.24805L63.6943 4.8652L63.6926 4.86941L64.6182 5.24805ZM65.9717 3.20703L66.6743 3.91859L66.6788 3.91414L65.9717 3.20703ZM68.0127 1.86426L67.6341 0.938711L68.0127 1.86426ZM76.918 1.86426L76.5364 2.78859L76.5393 2.7898L76.918 1.86426ZM78.959 3.20703L78.2519 3.91415L78.2563 3.91857L78.959 3.20703ZM80.3018 5.24805L79.375 5.62375L79.3762 5.62668L80.3018 5.24805ZM77.7236 6.33301L76.7891 6.689L76.7926 6.69802L76.7962 6.70698L77.7236 6.33301ZM76.9824 5.18359L76.2674 5.88271L76.2753 5.89075L76.2833 5.8986L76.9824 5.18359ZM75.833 4.44238L75.459 5.36982L75.468 5.37343L75.477 5.37687L75.833 4.44238ZM69.0869 4.44238L69.4479 5.37498L69.4558 5.37187L69.0869 4.44238ZM67.9375 5.18359L68.6367 5.89865L68.6446 5.8907L67.9375 5.18359ZM67.1855 6.33301L66.256 5.96415L66.253 5.97201L67.1855 6.33301ZM67.1855 12.2734L66.2511 12.6294L66.2545 12.6385L66.2581 12.6474L67.1855 12.2734ZM67.9375 13.4229L67.2303 14.13L67.2384 14.1379L67.9375 13.4229ZM69.0869 14.1641L68.7129 15.0915L68.7219 15.0951L68.7309 15.0986L69.0869 14.1641ZM75.8223 14.1641L76.1833 15.0967L76.1911 15.0936L75.8223 14.1641ZM76.9824 13.4229L77.6816 14.1379L77.6895 14.13L76.9824 13.4229ZM77.7236 12.2734L76.7941 11.9046L76.7911 11.9124L77.7236 12.2734ZM80.7852 10.7695H79.7852C79.7852 11.5911 79.6445 12.3239 79.3762 12.9798L80.3018 13.3584L81.2273 13.737C81.6035 12.8174 81.7852 11.8242 81.7852 10.7695H80.7852ZM80.3018 13.3584L79.3762 12.9798C79.1016 13.6509 78.7262 14.218 78.2519 14.6923L78.959 15.3994L79.6661 16.1065C80.3376 15.435 80.8573 14.6414 81.2273 13.737L80.3018 13.3584ZM78.959 15.3994L78.2519 14.6923C77.7776 15.1666 77.2105 15.5421 76.5393 15.8166L76.918 16.7422L77.2966 17.6677C78.201 17.2978 78.9946 16.778 79.6661 16.1065L78.959 15.3994ZM76.918 16.7422L76.5436 15.8149C75.8931 16.0775 75.1694 16.2148 74.3613 16.2148V17.2148V18.2148C75.4009 18.2148 76.3816 18.0371 77.2923 17.6695L76.918 16.7422ZM74.3613 17.2148V16.2148H70.5801V17.2148V18.2148H74.3613V17.2148ZM70.5801 17.2148V16.2148C69.7721 16.2148 69.0436 16.0775 68.3841 15.8137L68.0127 16.7422L67.6413 17.6707C68.5573 18.0371 69.5404 18.2148 70.5801 18.2148V17.2148ZM68.0127 16.7422L68.3913 15.8166C67.7202 15.5421 67.1531 15.1666 66.6788 14.6923L65.9717 15.3994L65.2646 16.1065C65.9361 16.778 66.7297 17.2978 67.6341 17.6677L68.0127 16.7422ZM65.9717 15.3994L66.6788 14.6923C66.2028 14.2163 65.8227 13.6468 65.5407 12.9726L64.6182 13.3584L63.6956 13.7442C64.0725 14.6455 64.5947 15.4366 65.2646 16.1065L65.9717 15.3994ZM64.6182 13.3584L65.5437 12.9798C65.2754 12.3239 65.1348 11.5911 65.1348 10.7695H64.1348H63.1348C63.1348 11.8242 63.3164 12.8174 63.6926 13.737L64.6182 13.3584ZM64.1348 10.7695H65.1348V7.82617H64.1348H63.1348V10.7695H64.1348ZM64.1348 7.82617H65.1348C65.1348 7.01279 65.275 6.28343 65.5437 5.62668L64.6182 5.24805L63.6926 4.86941C63.3168 5.78819 63.1348 6.77758 63.1348 7.82617H64.1348ZM64.6182 5.24805L65.542 5.63089C65.8239 4.95061 66.2027 4.3843 66.6743 3.91857L65.9717 3.20703L65.269 2.49549C64.5948 3.16127 64.0713 3.95564 63.6944 4.86521L64.6182 5.24805ZM65.9717 3.20703L66.6788 3.91414C67.1531 3.43983 67.7202 3.06437 68.3913 2.7898L68.0127 1.86426L67.6341 0.938711C66.7297 1.30868 65.9361 1.8284 65.2646 2.49992L65.9717 3.20703ZM68.0127 1.86426L68.3913 2.7898C69.049 2.52076 69.7749 2.38086 70.5801 2.38086V1.38086V0.380859C69.5376 0.380859 68.5519 0.563222 67.6341 0.938711L68.0127 1.86426ZM70.5801 1.38086V2.38086H74.3613V1.38086V0.380859H70.5801V1.38086ZM74.3613 1.38086V2.38086C75.1666 2.38086 75.8877 2.52079 76.5364 2.78858L76.918 1.86426L77.2996 0.939931C76.387 0.563193 75.4037 0.380859 74.3613 0.380859V1.38086ZM76.918 1.86426L76.5393 2.7898C77.2105 3.06437 77.7776 3.43983 78.2519 3.91414L78.959 3.20703L79.6661 2.49992C78.9946 1.8284 78.201 1.30868 77.2966 0.938711L76.918 1.86426ZM78.959 3.20703L78.2563 3.91857C78.7263 4.38265 79.1005 4.94649 79.375 5.62375L80.3018 5.24805L81.2285 4.87234C80.8585 3.95976 80.3375 3.16293 79.6616 2.49549L78.959 3.20703ZM80.3018 5.24805L79.3762 5.62668C79.6449 6.28343 79.7852 7.01279 79.7852 7.82617H80.7852H81.7852C81.7852 6.77758 81.6032 5.78819 81.2273 4.86941L80.3018 5.24805ZM80.7852 7.82617H79.7852V10.7695H80.7852H81.7852V7.82617H80.7852ZM77.9922 7.82617H78.9922C78.9922 7.16583 78.8847 6.53854 78.6511 5.95904L77.7236 6.33301L76.7962 6.70698C76.9206 7.0155 76.9922 7.38365 76.9922 7.82617H77.9922ZM77.7236 6.33301L78.6581 5.97701C78.4384 5.40034 78.1146 4.892 77.6815 4.46859L76.9824 5.18359L76.2833 5.8986C76.4948 6.1054 76.6651 6.36333 76.7891 6.689L77.7236 6.33301ZM76.9824 5.18359L77.6974 4.48448C77.274 4.05144 76.7657 3.72758 76.189 3.5079L75.833 4.44238L75.477 5.37687C75.8027 5.50094 76.0606 5.67121 76.2674 5.88271L76.9824 5.18359ZM75.833 4.44238L76.207 3.51494C75.6305 3.28248 75.011 3.17383 74.3613 3.17383V4.17383V5.17383C74.7859 5.17383 75.1475 5.24421 75.459 5.36982L75.833 4.44238ZM74.3613 4.17383V3.17383H70.5801V4.17383V5.17383H74.3613V4.17383ZM70.5801 4.17383V3.17383C69.9248 3.17383 69.3 3.28196 68.7181 3.51289L69.0869 4.44238L69.4558 5.37187C69.7761 5.24474 70.1468 5.17383 70.5801 5.17383V4.17383ZM69.0869 4.44238L68.7259 3.50981C68.158 3.72964 67.6555 4.0514 67.2304 4.47649L67.9375 5.18359L68.6446 5.8907C68.8641 5.67125 69.1278 5.49887 69.4479 5.37495L69.0869 4.44238ZM67.9375 5.18359L67.2384 4.46859C66.8084 4.88903 66.4827 5.3929 66.2561 5.96416L67.1855 6.33301L68.115 6.70185C68.2464 6.37077 68.4221 6.10837 68.6366 5.8986L67.9375 5.18359ZM67.1855 6.33301L66.253 5.97201C66.0301 6.54784 65.9277 7.17053 65.9277 7.82617H66.9277H67.9277C67.9277 7.37895 67.9973 7.00619 68.1181 6.694L67.1855 6.33301ZM66.9277 7.82617H65.9277V10.7695H66.9277H67.9277V7.82617H66.9277ZM66.9277 10.7695H65.9277C65.9277 11.4255 66.0302 12.0496 66.2511 12.6294L67.1855 12.2734L68.12 11.9174C67.9972 11.5949 67.9277 11.2164 67.9277 10.7695H66.9277ZM67.1855 12.2734L66.2581 12.6474C66.4849 13.2097 66.8083 13.7078 67.2304 14.13L67.9375 13.4229L68.6446 12.7157C68.4222 12.4933 68.2443 12.2252 68.113 11.8995L67.1855 12.2734ZM67.9375 13.4229L67.2384 14.1379C67.6598 14.5499 68.1553 14.8667 68.7129 15.0915L69.0869 14.1641L69.4609 13.2366C69.1305 13.1034 68.8597 12.926 68.6366 12.7078L67.9375 13.4229ZM69.0869 14.1641L68.7309 15.0986C69.3093 15.3189 69.9295 15.4219 70.5801 15.4219V14.4219V13.4219C70.1421 13.4219 69.7669 13.353 69.4429 13.2296L69.0869 14.1641ZM70.5801 14.4219V15.4219H74.3398V14.4219V13.4219H70.5801V14.4219ZM74.3398 14.4219V15.4219C74.9901 15.4219 75.6089 15.319 76.1833 15.0966L75.8223 14.1641L75.4613 13.2315C75.1477 13.3529 74.7781 13.4219 74.3398 13.4219V14.4219ZM75.8223 14.1641L76.1911 15.0936C76.7559 14.8694 77.2574 14.5526 77.6815 14.1379L76.9824 13.4229L76.2833 12.7078C76.0629 12.9233 75.791 13.1006 75.4534 13.2346L75.8223 14.1641ZM76.9824 13.4229L77.6895 14.13C78.1146 13.7049 78.4364 13.2023 78.6562 12.6344L77.7236 12.2734L76.7911 11.9124C76.6671 12.2326 76.4948 12.4963 76.2753 12.7157L76.9824 13.4229ZM77.7236 12.2734L78.6531 12.6423C78.8846 12.0588 78.9922 11.4302 78.9922 10.7695H77.9922H76.9922C76.9922 11.2117 76.9207 11.5857 76.7941 11.9046L77.7236 12.2734ZM77.9922 10.7695H78.9922V7.82617H77.9922H76.9922V10.7695H77.9922ZM98.0586 9.81348L97.2408 9.23798L97.2386 9.24105L98.0586 9.81348ZM96.0283 11.4678L96.4408 12.3788L96.4484 12.3752L96.0283 11.4678ZM94.8682 11.8438L94.672 10.8632L94.6686 10.8639L94.8682 11.8438ZM93.7725 11.9619V10.9619H91.0848L93.1188 12.7187L93.7725 11.9619ZM99.6055 17V18H102.293L100.259 16.2432L99.6055 17ZM95.2871 17L94.6328 17.7562L94.9145 18H95.2871V17ZM89.4648 11.9619L90.1192 11.2057L89.8374 10.9619H89.4648V11.9619ZM87.4561 11.9619H86.4561V12.9619H87.4561V11.9619ZM87.4561 9.16895V8.16895H86.4561V9.16895H87.4561ZM93.7725 9.16895V10.1689H93.8132L93.8538 10.1656L93.7725 9.16895ZM94.7285 8.9541L95.0999 9.88265L95.1115 9.87784L94.7285 8.9541ZM95.4805 8.4707L94.7982 7.73965L94.792 7.74542L94.7859 7.7513L95.4805 8.4707ZM95.9746 7.75098L96.8998 8.13055L96.9031 8.12237L95.9746 7.75098ZM96.082 4.65723L95.159 5.04184L95.1791 5.09014L95.2041 5.13608L96.082 4.65723ZM95.9316 4.47461L95.3316 5.27461L95.3863 5.31559L95.446 5.34877L95.9316 4.47461ZM95.7383 4.39941L95.6278 5.39336L95.6388 5.39445L95.7383 4.39941ZM86.3389 4.38867V3.38867H85.3389V4.38867H86.3389ZM86.3389 17V18H87.3389V17H86.3389ZM83.5459 17H82.5459V18H83.5459V17ZM83.9434 2.00391L83.2363 1.2968L83.2262 1.3069L83.2163 1.31728L83.9434 2.00391ZM97.1348 1.93945L96.6641 2.82188L96.6757 2.82788L97.1348 1.93945ZM98.1768 2.78809L97.3847 3.39859L97.3918 3.40778L97.3991 3.41681L98.1768 2.78809ZM98.7568 3.88379L97.7966 4.16312L97.799 4.17113L97.8014 4.1791L98.7568 3.88379ZM98.9395 6.77344H97.9395C97.9395 7.32998 97.8705 7.79542 97.7491 8.18162L98.7031 8.48145L99.6571 8.78127C99.8508 8.16486 99.9395 7.49163 99.9395 6.77344H98.9395ZM98.7031 8.48145L97.7491 8.18162C97.6191 8.59539 97.4474 8.94439 97.2408 9.23798L98.0586 9.81348L98.8764 10.389C99.2141 9.90912 99.4721 9.3701 99.6571 8.78127L98.7031 8.48145ZM98.0586 9.81348L97.2386 9.24105C97.0289 9.54152 96.7899 9.79299 96.5219 10.0008L97.1348 10.791L97.7476 11.5812C98.1815 11.2448 98.5584 10.8446 98.8786 10.3859L98.0586 9.81348ZM97.1348 10.791L96.5219 10.0008C96.2281 10.2286 95.9236 10.4143 95.6082 10.5603L96.0283 11.4678L96.4484 12.3752C96.9064 12.1632 97.3396 11.8977 97.7476 11.5812L97.1348 10.791ZM96.0283 11.4678L95.6158 10.5568C95.3029 10.6985 94.9887 10.7998 94.672 10.8632L94.8682 11.8438L95.0643 12.8243C95.5354 12.7301 95.9946 12.5808 96.4408 12.3787L96.0283 11.4678ZM94.8682 11.8438L94.6686 10.8639C94.3381 10.9312 94.0402 10.9619 93.7725 10.9619V11.9619V12.9619C94.1922 12.9619 94.6248 12.9139 95.0678 12.8236L94.8682 11.8438ZM93.7725 11.9619L93.1188 12.7187L98.9518 17.7568L99.6055 17L100.259 16.2432L94.4261 11.2051L93.7725 11.9619ZM99.6055 17V16H95.2871V17V18H99.6055V17ZM95.2871 17L95.9415 16.2438L90.1192 11.2057L89.4648 11.9619L88.8105 12.7181L94.6328 17.7562L95.2871 17ZM89.4648 11.9619V10.9619H87.4561V11.9619V12.9619H89.4648V11.9619ZM87.4561 11.9619H88.4561V9.16895H87.4561H86.4561V11.9619H87.4561ZM87.4561 9.16895V10.1689H93.7725V9.16895V8.16895H87.4561V9.16895ZM93.7725 9.16895L93.8538 10.1656C94.2905 10.13 94.7087 10.0391 95.0999 9.88258L94.7285 8.9541L94.3571 8.02562C94.1754 8.09831 93.9563 8.15062 93.6911 8.17226L93.7725 9.16895ZM94.7285 8.9541L95.1115 9.87784C95.5092 9.71296 95.8686 9.48605 96.1751 9.1901L95.4805 8.4707L94.7859 7.7513C94.677 7.8564 94.5351 7.95175 94.3455 8.03036L94.7285 8.9541ZM95.4805 8.4707L96.1628 9.20176C96.4859 8.90022 96.732 8.53939 96.8998 8.13053L95.9746 7.75098L95.0494 7.37142C94.988 7.52116 94.9048 7.64015 94.7982 7.73965L95.4805 8.4707ZM95.9746 7.75098L96.9031 8.12237C97.0727 7.69822 97.1465 7.24296 97.1465 6.77344H96.1465H95.1465C95.1465 7.03439 95.1056 7.23082 95.0461 7.37959L95.9746 7.75098ZM96.1465 6.77344H97.1465V5.01172H96.1465H95.1465V6.77344H96.1465ZM96.1465 5.01172H97.1465C97.1465 4.79599 97.1227 4.47677 96.9599 4.17837L96.082 4.65723L95.2041 5.13608C95.1605 5.05613 95.1488 4.99652 95.1465 4.98382C95.1438 4.96894 95.1465 4.97556 95.1465 5.01172H96.1465ZM96.082 4.65723L97.0051 4.27261C96.9059 4.03448 96.7253 3.77159 96.4173 3.60045L95.9316 4.47461L95.446 5.34877C95.2669 5.24924 95.1866 5.10809 95.159 5.04184L96.082 4.65723ZM95.9316 4.47461L96.5316 3.67461C96.3277 3.52162 96.0899 3.42959 95.8378 3.40438L95.7383 4.39941L95.6388 5.39445C95.5299 5.38356 95.421 5.34166 95.3316 5.27461L95.9316 4.47461ZM95.7383 4.39941L95.8487 3.40553C95.7523 3.39482 95.6543 3.38867 95.5557 3.38867V4.38867V5.38867C95.5716 5.38867 95.5954 5.38969 95.6278 5.3933L95.7383 4.39941ZM95.5557 4.38867V3.38867H86.3389V4.38867V5.38867H95.5557V4.38867ZM86.3389 4.38867H85.3389V17H86.3389H87.3389V4.38867H86.3389ZM86.3389 17V16H83.5459V17V18H86.3389V17ZM83.5459 17H84.5459V3.00293H83.5459H82.5459V17H83.5459ZM83.5459 3.00293H84.5459C84.5459 2.93642 84.5575 2.88501 84.5764 2.83969L83.6533 2.45508L82.7302 2.07046C82.6059 2.3689 82.5459 2.68272 82.5459 3.00293H83.5459ZM83.6533 2.45508L84.5764 2.83969C84.6038 2.77385 84.6358 2.7271 84.6704 2.69053L83.9434 2.00391L83.2163 1.31728C83.0074 1.53852 82.846 1.79255 82.7302 2.07046L83.6533 2.45508ZM83.9434 2.00391L84.6505 2.71101C84.685 2.67647 84.7252 2.64868 84.7791 2.6262L84.3945 1.70312L84.0099 0.780048C83.7201 0.900801 83.4595 1.07353 83.2363 1.2968L83.9434 2.00391ZM84.3945 1.70312L84.7791 2.6262C84.82 2.60917 84.8744 2.5957 84.9531 2.5957V1.5957V0.595703C84.6308 0.595703 84.3128 0.653852 84.0099 0.780048L84.3945 1.70312ZM84.9531 1.5957V2.5957H95.5557V1.5957V0.595703H84.9531V1.5957ZM95.5557 1.5957V2.5957C96.0592 2.5957 96.4142 2.68848 96.6642 2.82181L97.1348 1.93945L97.6054 1.0571C96.996 0.732094 96.2982 0.595703 95.5557 0.595703V1.5957ZM97.1348 1.93945L96.6757 2.82788C96.9904 2.99046 97.2188 3.18337 97.3847 3.39859L98.1768 2.78809L98.9688 2.17758C98.6047 1.7053 98.1385 1.33246 97.5938 1.05103L97.1348 1.93945ZM98.1768 2.78809L97.3991 3.41681C97.5925 3.65598 97.7211 3.90362 97.7966 4.16312L98.7568 3.88379L99.717 3.60446C99.5634 3.0762 99.3053 2.59336 98.9544 2.15936L98.1768 2.78809ZM98.7568 3.88379L97.8014 4.1791C97.8993 4.49576 97.9395 4.76422 97.9395 4.99023H98.9395H99.9395C99.9395 4.52875 99.8579 4.05958 99.7122 3.58848L98.7568 3.88379ZM98.9395 4.99023H97.9395V6.77344H98.9395H99.9395V4.99023H98.9395ZM104.558 17V18H105.558V17H104.558ZM101.765 17H100.765V18H101.765V17ZM101.765 1.5957V0.595703H100.765V1.5957H101.765ZM104.558 1.5957H105.558V0.595703H104.558V1.5957ZM104.558 17V16H101.765V17V18H104.558V17ZM101.765 17H102.765V1.5957H101.765H100.765V17H101.765ZM101.765 1.5957V2.5957H104.558V1.5957V0.595703H101.765V1.5957ZM104.558 1.5957H103.558V17H104.558H105.558V1.5957H104.558ZM120.488 10.7051V11.7051H121.488V10.7051H120.488ZM111.669 10.7051H110.669V11.7051H111.669V10.7051ZM111.669 7.89062V6.89062H110.669V7.89062H111.669ZM120.488 7.89062H121.488V6.89062H120.488V7.89062ZM121.745 17V18H122.745V17H121.745ZM110.401 16.7959L110.117 17.7545L110.401 16.7959ZM109.123 16.1299L108.491 16.9051L108.499 16.9115L108.507 16.9177L109.123 16.1299ZM108.146 14.916L107.256 15.3734L107.26 15.381L107.264 15.3886L108.146 14.916ZM108.156 2.00391L107.449 1.2968L107.439 1.3069L107.429 1.31728L108.156 2.00391ZM121.745 1.5957H122.745V0.595703H121.745V1.5957ZM121.745 4.38867V5.38867H122.745V4.38867H121.745ZM110.552 4.38867V3.38867H109.552V4.38867H110.552ZM121.745 14.207H122.745V13.207H121.745V14.207ZM120.488 10.7051V9.70508H111.669V10.7051V11.7051H120.488V10.7051ZM111.669 10.7051H112.669V7.89062H111.669H110.669V10.7051H111.669ZM111.669 7.89062V8.89062H120.488V7.89062V6.89062H111.669V7.89062ZM120.488 7.89062H119.488V10.7051H120.488H121.488V7.89062H120.488ZM121.745 17V16H111.669V17V18H121.745V17ZM111.669 17V16C111.398 16 111.073 15.9521 110.686 15.8373L110.401 16.7959L110.117 17.7545C110.647 17.9118 111.166 18 111.669 18V17ZM110.401 16.7959L110.686 15.8373C110.353 15.7385 110.039 15.5764 109.739 15.3421L109.123 16.1299L108.507 16.9177C108.995 17.2993 109.533 17.5812 110.117 17.7545L110.401 16.7959ZM109.123 16.1299L109.755 15.3546C109.482 15.1327 109.237 14.8356 109.027 14.4434L108.146 14.916L107.264 15.3886C107.584 15.9847 107.99 16.4969 108.491 16.9051L109.123 16.1299ZM108.146 14.916L109.035 14.4587C108.867 14.1332 108.759 13.687 108.759 13.0791H107.759H106.759C106.759 13.9178 106.908 14.6963 107.256 15.3734L108.146 14.916ZM107.759 13.0791H108.759V3.00293H107.759H106.759V13.0791H107.759ZM107.759 3.00293H108.759C108.759 2.93642 108.77 2.88501 108.789 2.83969L107.866 2.45508L106.943 2.07046C106.819 2.3689 106.759 2.68272 106.759 3.00293H107.759ZM107.866 2.45508L108.789 2.83969C108.817 2.77385 108.849 2.7271 108.883 2.69053L108.156 2.00391L107.429 1.31728C107.22 1.53852 107.059 1.79255 106.943 2.07046L107.866 2.45508ZM108.156 2.00391L108.863 2.71101C108.898 2.67647 108.938 2.64868 108.992 2.6262L108.607 1.70312L108.223 0.780048C107.933 0.900801 107.672 1.07353 107.449 1.2968L108.156 2.00391ZM108.607 1.70312L108.992 2.6262C109.033 2.60917 109.087 2.5957 109.166 2.5957V1.5957V0.595703C108.844 0.595703 108.526 0.653852 108.223 0.780048L108.607 1.70312ZM109.166 1.5957V2.5957H121.745V1.5957V0.595703H109.166V1.5957ZM121.745 1.5957H120.745V4.38867H121.745H122.745V1.5957H121.745ZM121.745 4.38867V3.38867H110.552V4.38867V5.38867H121.745V4.38867ZM110.552 4.38867H109.552V13.0791H110.552H111.552V4.38867H110.552ZM110.552 13.0791H109.552C109.552 13.6176 109.698 14.1869 110.135 14.6241L110.842 13.917L111.549 13.2099C111.557 13.2178 111.563 13.226 111.567 13.2328C111.571 13.2394 111.571 13.2412 111.569 13.2354C111.565 13.2224 111.552 13.1756 111.552 13.0791H110.552ZM110.842 13.917L110.135 14.6241C110.575 15.0647 111.151 15.207 111.69 15.207V14.207V13.207C111.588 13.207 111.538 13.1935 111.522 13.1883C111.512 13.1846 111.528 13.1888 111.549 13.2099L110.842 13.917ZM111.69 14.207V15.207H121.745V14.207V13.207H111.69V14.207ZM121.745 14.207H120.745V17H121.745H122.745V14.207H121.745ZM138.976 13.96L138.024 13.6529L138.021 13.6626L138.976 13.96ZM135.656 16.8926L135.452 15.9136L135.448 15.9145L135.656 16.8926ZM123.926 17H122.926V18H123.926V17ZM123.926 14.207V13.207H122.926V14.207H123.926ZM135.946 13.7344L135.223 13.0438L135.215 13.0526L135.946 13.7344ZM135.936 11.1992L135.196 11.8719L135.204 11.8809L135.212 11.8897L135.936 11.1992ZM135.398 10.834L135.016 11.7581L135.027 11.7625L135.398 10.834ZM126.815 10.4688L126.515 11.4226L126.527 11.4262L126.815 10.4688ZM125.354 9.68457L124.727 10.463L124.733 10.4679L125.354 9.68457ZM124.237 8.27734L123.345 8.72898L123.35 8.73766L124.237 8.27734ZM124.237 4.03418L123.35 3.57386L123.347 3.57809L124.237 4.03418ZM125.354 2.62695L125.982 3.40537L125.984 3.4042L125.354 2.62695ZM126.815 1.84277L127.104 2.80031L127.116 2.79655L126.815 1.84277ZM137.783 1.5957H138.783V0.595703H137.783V1.5957ZM137.783 4.38867V5.38867H138.783V4.38867H137.783ZM127.03 4.87207L126.299 4.1897L126.291 4.19858L127.03 4.87207ZM127.03 7.42871L126.299 8.11044L126.307 8.11904L126.315 8.12745L127.03 7.42871ZM134.722 7.89062L134.745 6.89091L134.734 6.89062H134.722V7.89062ZM135.678 8.01953L135.45 8.99322L135.46 8.99553L135.47 8.99764L135.678 8.01953ZM136.677 8.36328L136.245 9.26545L136.253 9.26897L136.677 8.36328ZM137.633 8.96484L137.004 9.74209L137.009 9.74667L137.015 9.75116L137.633 8.96484ZM138.428 9.82422L137.601 10.387L137.605 10.393L137.609 10.3988L138.428 9.82422ZM139.19 12.4668H138.19C138.19 12.9324 138.13 13.3243 138.024 13.653L138.976 13.96L139.927 14.267C140.108 13.7076 140.19 13.104 140.19 12.4668H139.19ZM138.976 13.96L138.021 13.6626C137.911 14.0166 137.768 14.3118 137.601 14.5573L138.428 15.1201L139.254 15.6829C139.545 15.2553 139.768 14.777 139.93 14.2573L138.976 13.96ZM138.428 15.1201L137.601 14.5573C137.429 14.8103 137.233 15.0177 137.013 15.1862L137.622 15.9795L138.231 16.7728C138.627 16.4686 138.968 16.1031 139.254 15.6829L138.428 15.1201ZM137.622 15.9795L137.013 15.1862C136.761 15.3798 136.507 15.533 136.251 15.6499L136.666 16.5596L137.081 17.4693C137.484 17.2853 137.867 17.0518 138.231 16.7728L137.622 15.9795ZM136.666 16.5596L136.251 15.6499C135.987 15.7704 135.721 15.8576 135.452 15.9136L135.656 16.8926L135.86 17.8716C136.279 17.7843 136.686 17.6496 137.081 17.4693L136.666 16.5596ZM135.656 16.8926L135.448 15.9145C135.17 15.9736 134.922 16 134.7 16V17V18C135.08 18 135.469 17.9548 135.864 17.8707L135.656 16.8926ZM134.7 17V16H123.926V17V18H134.7V17ZM123.926 17H124.926V14.207H123.926H122.926V17H123.926ZM123.926 14.207V15.207H134.7V14.207V13.207H123.926V14.207ZM134.7 14.207V15.207C135.441 15.207 136.15 14.9822 136.678 14.4161L135.946 13.7344L135.215 13.0526C135.155 13.1167 135.033 13.207 134.7 13.207V14.207ZM135.946 13.7344L136.67 14.4249C137.185 13.8851 137.397 13.195 137.397 12.4668H136.397H135.397C135.397 12.7985 135.309 12.9535 135.223 13.0439L135.946 13.7344ZM136.397 12.4668H137.397C137.397 12.1063 137.342 11.7517 137.218 11.4136L136.279 11.7578L135.34 12.1021C135.374 12.1936 135.397 12.3117 135.397 12.4668H136.397ZM136.279 11.7578L137.218 11.4136C137.095 11.0764 136.909 10.7707 136.659 10.5087L135.936 11.1992L135.212 11.8897C135.263 11.9429 135.306 12.0096 135.34 12.1021L136.279 11.7578ZM135.936 11.1992L136.675 10.5265C136.422 10.2474 136.113 10.0427 135.77 9.90551L135.398 10.834L135.027 11.7625C135.114 11.7971 135.163 11.8359 135.196 11.8719L135.936 11.1992ZM135.398 10.834L135.781 9.90997C135.435 9.76703 135.07 9.70508 134.7 9.70508V10.7051V11.7051C134.846 11.7051 134.946 11.7291 135.016 11.758L135.398 10.834ZM134.7 10.7051V9.70508H128.276V10.7051V11.7051H134.7V10.7051ZM128.276 10.7051V9.70508C127.941 9.70508 127.552 9.64634 127.104 9.51129L126.815 10.4688L126.527 11.4262C127.124 11.6063 127.709 11.7051 128.276 11.7051V10.7051ZM126.815 10.4688L127.116 9.51497C126.716 9.38883 126.337 9.18729 125.976 8.90128L125.354 9.68457L124.733 10.4679C125.275 10.898 125.87 11.2192 126.515 11.4225L126.815 10.4688ZM125.354 9.68457L125.982 8.90616C125.661 8.64674 125.371 8.29202 125.125 7.81703L124.237 8.27734L123.35 8.73766C123.705 9.42282 124.16 10.0063 124.727 10.463L125.354 9.68457ZM124.237 8.27734L125.13 7.82573C124.924 7.42014 124.797 6.87523 124.797 6.15039H123.797H122.797C122.797 7.10133 122.963 7.97439 123.345 8.72896L124.237 8.27734ZM123.797 6.15039H124.797C124.797 5.42493 124.924 4.88599 125.127 4.49027L124.237 4.03418L123.347 3.57809C122.963 4.3282 122.797 5.20007 122.797 6.15039H123.797ZM124.237 4.03418L125.125 4.4945C125.371 4.0195 125.661 3.66478 125.982 3.40537L125.354 2.62695L124.727 1.84854C124.16 2.30527 123.705 2.8887 123.35 3.57386L124.237 4.03418ZM125.354 2.62695L125.984 3.4042C126.341 3.11534 126.713 2.91805 127.104 2.80024L126.815 1.84277L126.527 0.885309C125.872 1.0826 125.271 1.4081 124.725 1.84971L125.354 2.62695ZM126.815 1.84277L127.116 2.79655C127.562 2.65613 127.946 2.5957 128.276 2.5957V1.5957V0.595703C127.704 0.595703 127.115 0.699989 126.515 0.888994L126.815 1.84277ZM128.276 1.5957V2.5957H137.783V1.5957V0.595703H128.276V1.5957ZM137.783 1.5957H136.783V4.38867H137.783H138.783V1.5957H137.783ZM137.783 4.38867V3.38867H128.276V4.38867V5.38867H137.783V4.38867ZM128.276 4.38867V3.38867C127.53 3.38867 126.827 3.62443 126.299 4.18975L127.03 4.87207L127.761 5.55439C127.835 5.47518 127.963 5.38867 128.276 5.38867V4.38867ZM127.03 4.87207L126.291 4.19858C125.795 4.74287 125.59 5.42775 125.59 6.15039H126.59H127.59C127.59 5.81314 127.678 5.6458 127.769 5.54556L127.03 4.87207ZM126.59 6.15039H125.59C125.59 6.87514 125.793 7.56738 126.299 8.11044L127.03 7.42871L127.762 6.74699C127.681 6.65983 127.59 6.49986 127.59 6.15039H126.59ZM127.03 7.42871L126.315 8.12745C126.846 8.67081 127.543 8.89062 128.276 8.89062V7.89062V6.89062C127.949 6.89062 127.816 6.8025 127.746 6.72997L127.03 7.42871ZM128.276 7.89062V8.89062H134.7V7.89062V6.89062H128.276V7.89062ZM134.7 7.89062V8.89062H134.722V7.89062V6.89062H134.7V7.89062ZM134.722 7.89062L134.698 8.89034C134.921 8.89565 135.171 8.92785 135.45 8.99322L135.678 8.01953L135.906 7.04584C135.512 6.95366 135.124 6.89993 134.745 6.89091L134.722 7.89062ZM135.678 8.01953L135.47 8.99764C135.724 9.05186 135.983 9.13984 136.245 9.26542L136.677 8.36328L137.108 7.46115C136.712 7.27162 136.304 7.13043 135.886 7.04143L135.678 8.01953ZM136.677 8.36328L136.253 9.26897C136.513 9.39079 136.763 9.54746 137.004 9.74209L137.633 8.96484L138.262 8.1876C137.901 7.89524 137.514 7.65088 137.101 7.45759L136.677 8.36328ZM137.633 8.96484L137.015 9.75116C137.23 9.92016 137.426 10.1297 137.601 10.387L138.428 9.82422L139.254 9.26143C138.971 8.84554 138.637 8.48218 138.251 8.17853L137.633 8.96484ZM138.428 9.82422L137.609 10.3988C137.78 10.6417 137.923 10.9328 138.032 11.2818L138.986 10.9844L139.941 10.687C139.778 10.1622 139.548 9.67992 139.246 9.24959L138.428 9.82422ZM138.986 10.9844L138.032 11.2818C138.132 11.605 138.19 11.9962 138.19 12.4668H139.19H140.19C140.19 11.8345 140.113 11.2375 139.941 10.687L138.986 10.9844Z" fill="#A1C3F0" mask="url(#path-1-outside-1_937_5)"/>
</g>
<defs>
<filter id="filter0_d_937_5" x="0.62207" y="0.375488" width="143.568" height="25.8394" filterUnits="userSpaceOnUse" color-interpolation-filters="sRGB">
<feFlood flood-opacity="0" result="BackgroundImageFix"/>
<feColorMatrix in="SourceAlpha" type="matrix" values="0 0 0 0 0 0 0 0 0 0 0 0 0 0 0 0 0 0 127 0" result="hardAlpha"/>
<feOffset dy="4"/>
<feGaussianBlur stdDeviation="2"/>
<feComposite in2="hardAlpha" operator="out"/>
<feColorMatrix type="matrix" values="0 0 0 0 0 0 0 0 0 0 0 0 0 0 0 0 0 0 0.25 0"/>
<feBlend mode="normal" in2="BackgroundImageFix" result="effect1_dropShadow_937_5"/>
<feBlend mode="normal" in="SourceGraphic" in2="effect1_dropShadow_937_5" result="shape"/>
</filter>
</defs>
</svg>
